<svg xmlns="http://www.w3.org/2000/svg" width="360.286" height="361.993" viewBox="0 0 360.286 361.993">
  <path id="rmicon" d="M414.983,301.492l0-.124c.007-.664.025-1.326.025-1.992,0-.24-.008-.478-.009-.718,0-.428.009-.852.008-1.282-.01-.137-.02-.287-.03-.432a179.3,179.3,0,0,0-58.621-130.417c-23.033-21.962-50.114-37.12-82.062-43.014-2.714-.5-5.428-.909-8.141-1.264A179.99,179.99,0,0,0,87.347,197.115a175.5,175.5,0,0,0-32.585,98.537c-.508,30.153,3.924,59.406,18.324,86.032,30.346,56.112,76.21,90.991,140.726,98.548,30.92,3.622,61.11.049,90.023-11.85,52.653-21.668,102.362-73.823,110.12-149.51Q414.879,310.3,414.983,301.492Zm-143.631,67.4c-8.983.244-19.1-7.357-20.8-15.63-1.226-5.953-.506-6.882,5.421-7.5,3.954-.414,7.916-.859,11.823-1.572,6.7-1.225,13.623-2.221,16.269-9.976,6.078,3.624,8.41,10.22,6.937,18.549C289.455,361.479,280.734,368.64,271.352,368.895Zm35.729-34.565c3.676,8,10.735,8.78,17.724,9.615,4.284.511,8.585.892,12.885,1.242,2.841.232,4.186,1.57,4,4.5a19.382,19.382,0,0,1-14.984,17.182c-10.081,2.193-19.57-1.659-24.082-9.775C298.786,350.184,300.446,340.822,307.081,334.33Zm31.3,91.665c-3.328-6.012-6.76-11.976-9.866-18.1-.419-.827.441-2.886,1.328-3.7,7.691-7.033,15.425-14.028,23.353-20.793,4.756-4.059,5.81-8.954,3.484-14.673-1.172-2.883-1.267-6.346-1.245-9.543.043-6.259.722-12.515.759-18.774.1-17.7-6.947-32.668-19.756-44.251-11.739-10.615-25.919-16.712-42.346-15.424-4.968.39-9.937.969-14.856,1.768-15.019,2.44-26.023,11.2-35.13,22.784a89.416,89.416,0,0,0-7.869,10.932c-1.564,2.764-2.175,6.105-2.992,9.246-1.163,4.478-1.74,9.143-3.258,13.486-2.628,7.514-2.063,14.4,2.835,20.712,2.368,3.05,3.045,5.487-.253,8.536-3.774,3.489-2.918,7.872-.82,11.971,2.056,4.017,5.308,6.21,10.02,6.112,1.286-.027,3.242.261,3.785,1.111,7.436,11.639,18.194,18.707,31.139,22.888l-.457,1.3a82.868,82.868,0,0,1-9.54-2.785c-3.388-1.418-4.9-.27-6.729,2.644-7.611,12.114-9.753,25.644-10.951,39.483a2.814,2.814,0,0,1-1.472,2.3c-1.162-4.553-2.254-9.126-3.5-13.657-5.934-21.6-11.993-43.168-17.807-64.8-1.286-4.783-3.853-7.231-8.742-8.164a147.515,147.515,0,0,1-18.358-4.778c-2-.656-4.556-2.787-4.836-4.562-.249-1.577,2.109-3.789,3.679-5.358,1.258-1.259,3.129-1.88,4.609-2.949,6.192-4.478,12.339-9.018,19.129-13.994-.68-.985-2.116-3.1-3.591-5.191-1.68-2.38-2.078-3.918,1.631-4.852,8.764-2.209,8.826-2.408,6.222-10.906-1.013-3.3.06-4.917,3.093-6.106,4.583-1.8,9.046-3.9,14.614-6.328l-18.424-12.823,30.2-14.332-.5-2.3-21.705-9.47,20.82-21.462L226.2,236.821l16.147-28.244q-.363-.6-.727-1.21c-5.677,2.087-11.319,4.277-17.039,6.236-9.992,3.423-9.7,6.317-11.51-6.856-1.1-8.021-1.207-16.18-1.813-25.058-1.732.668-3.392.919-4.549,1.817-7.452,5.785-15.033,11.444-22.056,17.721-2.812,2.514-3.855,1.968-5.753-.487-4.685-6.056-9.571-11.957-14.3-17.982a47.948,47.948,0,0,1-2.893-4.664l-1.992,1.137c-.572,3.5-.97,7.047-1.756,10.5-1.29,5.665-2.753,11.295-4.3,16.9-.912,3.309-2.732,3.806-6.02,2.312-5.571-2.532-11.411-4.491-17.206-6.5-1.609-.557-3.455-.43-5.954-.7,2.154,5.6,3.992,10.377,5.836,15.154.479,1.241,1.075,2.444,1.454,3.714,2.339,7.844,1.775,8.587-6.529,9.281-8.919.746-17.831,1.567-27.986,2.465,3.79,4.215,7.024,7.6,10,11.188,3.069,3.7,5.928,7.575,8.809,11.425,2.162,2.89,1.379,5-1.581,6.992-6.747,4.536-13.324,9.324-20.953,14.7,3.939,1.278,7.04,1.814,9.66,3.235a145.235,145.235,0,0,1,14.626,9.063c3.017,2.134,3.014,4.873-.046,7.411-4.461,3.7-8.819,7.528-13.221,11.3l1.011,2.523c4.57,1.625,9.119,3.318,13.718,4.859,6.5,2.179,6.5,2.127,4.821,8.641-.985,3.831-1.905,7.679-3.113,12.564,4.854-.333,8.918-.453,12.938-.935,3.569-.428,5.367.533,5.209,4.47a60.738,60.738,0,0,0,.592,7.668c.757.256,1.188.536,1.327.43,9.438-7.151,16.018,1.31,23.359,4.553,3.4,1.5,2.125,5.751-2.092,7.277-7.513,2.719-14.989,5.6-22.646,7.849-5.07,1.489-7.51,4.3-8.821,9.413-3.412,13.319-7.427,26.484-11.42,40.477C100.92,397.917,86.415,376.8,77.992,351.777c-11.217-33.314-12.063-66.9-2.2-100.6,20.6-70.371,88.032-120.287,162.527-118.42C309.482,134.541,374.3,182.9,393.572,253.465,412.357,322.245,387.174,387.408,338.381,425.995ZM218.064,403.463q-7.126-15.081-14.3-30.137c-.82-1.722-1.736-3.4-2.607-5.1l.853-.557a24.984,24.984,0,0,1,2.653,3.7c5.207,10.932,10.322,21.909,15.473,32.868,1.8,3.822.98,7.077-2.048,9.906-3.315,3.1-6.6,6.219-9.9,9.331l-1.274-1.312c2.862-2.589,5.586-5.355,8.62-7.723C219.455,411.372,220.1,407.768,218.064,403.463Zm-16.235,10.61-2.036.248q-2.367-21.063-4.736-42.125l1.95-.144Q199.417,393.062,201.829,414.073ZM187.591,273.879c-2.367-.27-5.391.618-5.544-3.248-.156-3.908-.257-7.968,4.591-9.32a32.849,32.849,0,0,1,5.938-.571l.513-1.13c5.468,2.142,11.063,4.014,16.357,6.523,3.434,1.628,4.4,4.916,2.842,8.523-1.573,3.65-4.411,1.716-6.9,1.394Q196.5,274.9,187.591,273.879ZM143.1,271.916c-1.147-6.565,3.139-13.6,9.722-16.342,6.424-2.677,14.386-.582,18.019,5.434a25.9,25.9,0,0,1,3,9.818c.492,3.7-1.111,6.25-5.647,4.191-6.888.493-13.79.835-20.656,1.537C143.724,276.944,143.507,274.255,143.1,271.916Zm3.622,66.82-1.511.633q-3.492-8.409-6.982-16.817l1.437-.6Zm20.021,35.75q-.765,15.011-1.532,30.023l-.36-.2v-29.9Z" transform="translate(-54.724 -119.589)" fill="#343433"/>
</svg>
